<svg xmlns="http://www.w3.org/2000/svg" viewBox="0.398 0.8 53.93 38.39"><g fill="none"><path d="M32.516.839l4.442.006h5.085l-.097.14a2293.32 2293.32 0 0 1-6.758 9.61c-.323.455-.63.893-.924 1.315a1076.373 1076.373 0 0 1-5.011 7.144c-.188.266-.492.703-.923 1.325a621.893 621.893 0 0 1-3.87 5.517 94.98 94.98 0 0 0-.89 1.28 112.81 112.81 0 0 1-.849 1.228 916.356 916.356 0 0 0-4.534 6.438c-.28.401-.615.769-1.224 1.342-.347.327-.647.585-.896.772a10.656 10.656 0 0 1-5.603 2.135c-.287.025-.767.04-1.42.04-1.537.003-3.108.004-4.724.005-.227 0-.467.006-.767.017l-.315.014-.167.007c-.355.015-.491.02-.641.02l-2.032.001.052-.073.412-.587.804-1.15c.67-.96 1.345-1.92 2.024-2.88.75-1.06 2.643-3.756 5.7-8.116a857.296 857.296 0 0 0 3.34-4.797c.35-.505.692-.994 1.027-1.467l2.085-2.933.065-.092c.651-.94 2.153-3.088 4.505-6.447 1.49-2.127 2.67-3.809 3.53-5.032.353-.502.637-.874.84-1.108a10.95 10.95 0 0 1 3.915-2.876c.061-.027.378-.14.862-.302a9.689 9.689 0 0 1 2.957-.496z" fill="#ff4072"/><path d="M48.306.8a6.029 6.029 0 1 1 0 12.058 6.029 6.029 0 0 1 0-12.058z" fill="#ffcd28"/><path d="M54.318 15.472v23.721l-1.48-.004c-2.233-.003-4.461-.002-6.682.004a20.48 20.48 0 0 1-.99-.015 2.674 2.674 0 0 1-1.363-.423c-.418-.27-.759-.591-.973-.919a5.252 5.252 0 0 1-.322-.654c-.147-.34-.227-.756-.227-1.26l-.001-6.894V21.565l.001-.236.001-5.338v-.519h12.036z" fill="#1e91e8"/></g></svg>